<svg xmlns="http://www.w3.org/2000/svg" viewBox="0 0 225 90" fill="none">

  <rect width="225" height="90" rx="12" fill="#4F8EF7"/>

  <g transform="translate(-20, 3) scale(0.93)" fill="#ffffff">
    <path d="M47.3,82.4c-0.7,0-1.4,0-2,0c-0.5,0-0.4-0.2-0.4-0.7c0-0.4,0.6-0.3,0.9-0.3c0.5,0,1-0.1,1.5-0.2L47.3,82.4z"/>
    <path d="M52,20.5c1.6-0.7,2.7-2.4,2.7-4.2c0-2.5-2-4.5-4.5-4.5c-2.4,0-4.5,2.1-4.5,4.6c0,1.9,1.1,3.5,2.7,4.1L48.7,34c0.9,0.6,2,1,3,1.4L52,20.5z"/>
    <path d="M58,50.7c1.9-3.3,1.2-7.6-1.6-9.9c-2.6-2.1-5.9-2.5-8.7-4.1c-1.5-0.9-2.5-2.1-2.7-3.9c0-0.6-0.1-1.2,0.1-1.7c0.1-0.4,0.2-0.7,0.4-1.1c0.1-0.2,0.4-0.5,0.4-0.7l0-4.5c-3.6,1.8-5.3,5.9-4.4,9.9c0.9,4,4.5,5.8,7.9,7.2c1.7,0.6,4,1.3,5.2,2.8c0.9,1.3,0.7,3.6-0.4,4.8c-0.4,0.5-0.2,1.7-0.2,2.4l-0.1,2.5C55.6,53.4,57.1,52.3,58,50.7z"/>
    <path d="M56.2,71.9c-1.1-2.5-3.5-3.9-5.8-4.9c-2-1-4.8-1.9-5.4-4.5c-0.2-1.2-0.1-2.7,0.6-3.7c0.1-0.2,0.9-0.8,0.9-1l0-0.6l0-3.7c-3.2,1.7-5.3,4.6-5.1,8.3c0.1,1.7,0.7,3.4,1.8,4.7c1.1,1.3,2.7,2.1,4.2,2.8c2.9,1.3,6.5,2.2,7,5.9c0.1,0.4,0.1,0.8,0,1.3c0,0.4-0.1,0.8-0.3,1.2c-0.1,0.3-0.5,0.8-0.5,1l0,2.3C56.5,79.1,57.5,75.1,56.2,71.9z"/>
    <path d="M51.1,45.4c-0.7-0.3-1.5-0.6-2.3-0.9c0.1,3.2,0.2,18.7,0.3,18.8c0.5,0.3,1.8,0.9,1.9,0.9l0.4-18.6L51.1,45.4z"/>
    <path d="M49.5,85.2l1.1,0c0-2,0.3-11.1,0.2-11.3c-0.4-0.4-1-0.7-1.5-0.9L49.5,85.2z"/>
    <path d="M62.2,30.9c-0.8,1.1-3,0.6-4.9-0.9c-0.5-0.4-0.9-0.8-1.2-1.2c-0.6-0.3-1.2-0.6-1.8-0.8C53.9,28,54,27.9,54,27.6l0.1-4.2c1.7,0.4,3.4,1,4.7,2c0,0,0,0,0,0c0.4,0.2,0.8,0.5,1.3,0.8C62,27.8,63,29.9,62.2,30.9z"/>
    <path d="M60.1,30.5c0.2-0.4-1.9-1.6-2.1-1.1C57.7,29.8,59.8,30.9,60.1,30.5z"/>
    <path d="M61.3,29c0.4-0.3-1.1-2.2-1.5-1.9C59.5,27.5,61,29.4,61.3,29z"/>
  </g>

  <!-- Wordmark -->
  <text x="48" y="58" font-family="'Helvetica Neue', Helvetica, Arial, sans-serif" font-size="31" font-weight="700" letter-spacing="-0.5" fill="#ffffff">Med</text>
  <text x="108" y="58" font-family="'Helvetica Neue', Helvetica, Arial, sans-serif" font-size="31" font-weight="700" letter-spacing="-0.5" fill="#ffffff">Gov</text>
  <text x="169" y="58" font-family="'Helvetica Neue', Helvetica, Arial, sans-serif" font-size="31" font-weight="700" letter-spacing="-0.5" fill="#ffffff">AI</text>

</svg>
